<svg width="320" height="108" viewBox="0 0 320 108" fill="none" xmlns="http://www.w3.org/2000/svg">
<path d="M59.4678 40.5085V93.292H57.1453V43.2532L32.2315 94.2773L7.45842 43.2532V93.292H5.34708V40.5085H8.72522L32.4426 89.2101L56.2304 40.5085H59.4678ZM70.0206 40.5085H88.9523V42.5494H72.3431V71.2637H86.2076V73.3046H72.3431V91.251H88.9523V93.292H70.0206V40.5085ZM150.121 40.5085V93.292H147.798V43.2532L122.884 94.2773L98.1113 43.2532V93.292H96V40.5085H99.3781L123.096 89.2101L146.883 40.5085H150.121ZM185.447 94.2069C178.174 94.2069 171.864 91.4622 166.515 85.9727C161.213 80.4832 158.562 74.0788 158.562 66.7595C158.562 59.3933 161.26 53.0358 166.656 47.687C172.051 42.2914 178.526 39.5936 186.08 39.5936C193.634 39.5936 200.085 42.2679 205.434 47.6167C210.783 52.9654 213.457 59.3463 213.457 66.7595C213.457 74.1257 210.806 80.5536 205.504 86.0431C200.203 91.4856 193.868 94.2069 186.502 94.2069H185.447ZM211.135 66.9002C211.135 59.9563 208.671 54.0211 203.745 49.0946C198.865 44.1212 192.954 41.6345 186.01 41.6345C179.113 41.6345 173.201 44.1212 168.274 49.0946C163.348 54.0211 160.885 59.9563 160.885 66.9002C160.885 73.7973 163.348 79.7325 168.274 84.7059C173.201 89.6793 179.113 92.1659 186.01 92.1659C192.907 92.1659 198.818 89.6793 203.745 84.7059C208.671 79.7325 211.135 73.7973 211.135 66.9002ZM221.911 40.5085H224.937C229.488 40.5085 233.476 42.1976 236.901 45.5757C240.373 48.9069 242.109 52.8481 242.109 57.3992C242.109 61.9034 240.35 65.8211 236.831 69.1523C233.312 72.4836 229.535 74.1492 225.5 74.1492H225.007L243.165 93.292H240.139L224.163 76.542V93.292H221.911V40.5085ZM224.163 72.1082H225.43C229.23 72.1082 232.585 70.6537 235.494 67.7448C238.403 64.8358 239.857 61.3873 239.857 57.3992C239.857 53.4111 238.356 49.9391 235.353 46.9833C232.35 44.0274 228.925 42.5494 225.078 42.5494H224.163V72.1082ZM250.922 40.5085H253.245V93.292H250.922V40.5085ZM264.179 40.5085H283.11V42.5494H266.501V71.2637H280.366V73.3046H266.501V91.251H283.11V93.292H264.179V40.5085ZM311.412 47.9686C310.333 45.998 308.855 44.4497 306.978 43.3236C305.149 42.1976 303.084 41.6345 300.785 41.6345C298.486 41.6345 296.516 42.3618 294.873 43.8163C293.278 45.2238 292.481 47.1709 292.481 49.6576V50.0095C292.481 52.9654 294.123 55.6632 297.407 58.103C298.815 59.1352 300.386 60.1674 302.122 61.1996C303.905 62.1849 305.665 63.264 307.401 64.437C309.184 65.5631 310.779 66.7829 312.186 68.0967C313.641 69.3635 314.814 70.9352 315.705 72.812C316.644 74.6887 317.113 76.7532 317.113 79.0053V79.709C317.113 84.1663 315.588 87.7087 312.538 90.3361C309.535 92.9636 305.805 94.2773 301.348 94.2773C295.483 94.2773 290.932 91.861 287.695 87.0283V83.2279C288.915 85.9023 290.698 88.084 293.044 89.7731C295.436 91.4152 298.392 92.2363 301.911 92.2363C305.43 92.2363 308.48 91.1103 311.06 88.8582C313.641 86.6061 314.931 83.6033 314.931 79.8498V79.4275C314.931 77.0816 314.321 74.9468 313.101 73.0231C311.881 71.0525 310.357 69.4573 308.527 68.2374C306.697 66.9706 304.703 65.6569 302.545 64.2963C300.386 62.9356 298.392 61.6688 296.562 60.4958C294.733 59.3229 293.208 57.8449 291.988 56.062C290.768 54.2791 290.158 52.332 290.158 50.2206V49.728C290.158 46.4437 291.214 43.9335 293.325 42.1976C295.436 40.4616 298.04 39.5936 301.137 39.5936C305.454 39.5936 308.879 41.1888 311.412 44.3793V47.9686Z" fill="white"></path>
<path d="M101.313 27V7.33814H103.161L110.551 18.0532H109.521L116.885 7.33814H118.732V27H116.621V10.1885L117.307 10.4524L110.075 20.9299H109.97L102.765 10.4524L103.425 10.1885V27H101.313ZM138.946 27V7.33814H151.614V9.31753H141.058V16.153H151.087V18.1324H141.058V25.0206H151.614V27H138.946ZM170.677 27V7.33814H172.525L184.058 23.8858H183.345V7.33814H185.457V27H183.609L172.076 10.3468H172.789V27H170.677ZM205.681 27V7.33814H212.147C214.1 7.33814 215.798 7.74282 217.241 8.55216C218.684 9.34392 219.801 10.4788 220.593 11.9567C221.385 13.417 221.78 15.1501 221.78 17.1559C221.78 19.1441 221.385 20.8771 220.593 22.3551C219.801 23.833 218.684 24.9766 217.241 25.786C215.798 26.5953 214.1 27 212.147 27H205.681ZM207.793 25.0206H212.147C213.661 25.0206 214.971 24.7039 216.08 24.0705C217.188 23.4195 218.042 22.5046 218.64 21.3258C219.256 20.1469 219.563 18.757 219.563 17.1559C219.563 15.5548 219.256 14.1736 218.64 13.0124C218.024 11.8335 217.162 10.9274 216.053 10.294C214.945 9.64302 213.643 9.31753 212.147 9.31753H207.793V25.0206Z" fill="white"></path>
<line x1="240.275" y1="16.22" x2="317.251" y2="16.22" stroke="#A4A4A4" stroke-width="0.549828"></line>
<line x1="5.49805" y1="16.22" x2="82.474" y2="16.22" stroke="#A4A4A4" stroke-width="0.549828"></line>
</svg>